<?xml version="1.0" ?><svg width="512px" height="512px" viewBox="0 0 512 512" style="enable-background:new 0 0 512 512;" version="1.1" xml:space="preserve" xmlns="http://www.w3.org/2000/svg" xmlns:xlink="http://www.w3.org/1999/xlink"><style type="text/css">
	.st0{fill:#333333;}
	.st1{fill:none;stroke:#333333;stroke-width:32;stroke-linecap:round;stroke-linejoin:round;stroke-miterlimit:10;}
</style><g id="Layer_1"/><g id="Layer_2"><g><g><g><g><path class="st0" d="M283.64,419.21c-14.39,11.01-28.78,22.02-43.18,33.03c-26.38,19.2-61.95,2.2-77.07-23.3       c-46.78-76.42-78.55-158.81-95.18-246.85c-4.5-27.74,7.95-67.28,41.48-69.01c18.06-1.5,36.12-3,54.17-4.51       c13.68-1.6,24.42,11.04,26.45,23.32c2.04,16.25,4.92,32.41,8.36,48.42c3.36,12.89-4.78,26.7-17.14,30.68       c-10.7,2.83-21.41,5.67-32.11,8.5c12.19,44.17,28.43,86.27,49.04,127.19c9.83-5.09,19.67-10.17,29.5-15.26       c11.97-6.71,26.71,0.68,33.3,11.23c8.12,14.23,16.99,28.04,26.31,41.51C295.64,394.79,293.56,410.74,283.64,419.21z"/></g></g></g><g><g><path class="st0" d="M309.39,312.42c-2.46,0-4.95-0.61-7.25-1.9c-7.15-4.01-9.69-13.06-5.67-20.2      c10.31-18.37,11.89-40.15,4.33-59.76c-8.37-21.72-26.92-37.85-49.61-43.16c-7.98-1.87-12.94-9.85-11.07-17.83      c1.87-7.98,9.85-12.94,17.83-11.07c32.26,7.54,58.63,30.49,70.54,61.38c10.76,27.89,8.52,58.86-6.14,84.97      C319.62,309.69,314.58,312.42,309.39,312.42z"/></g></g><g><g><path class="st0" d="M404.75,366.1c-2.46,0-4.96-0.61-7.26-1.91c-7.14-4.02-9.68-13.06-5.66-20.21      c26.39-46.93,30.43-102.63,11.08-152.81c-21.42-55.54-68.85-96.81-126.9-110.38c-7.98-1.87-12.94-9.85-11.07-17.83      c1.87-7.98,9.84-12.94,17.83-11.07c67.61,15.81,122.87,63.89,147.83,128.6c22.55,58.47,17.84,123.36-12.9,178.04      C414.98,363.38,409.94,366.1,404.75,366.1z"/></g></g></g></g></svg>